<svg xmlns="http://www.w3.org/2000/svg" width="100%" height="100%" viewBox="0 0 32.799 32.799"><defs><style>.a{fill:#ffd15c;}.b{fill:#f8b64c;}.c{fill:#fff;}</style></defs><g transform="translate(-22.403)"><circle class="a" cx="16.399" cy="16.399" r="16.399" transform="translate(22.403)"/><circle class="b" cx="11.887" cy="11.887" r="11.887" transform="translate(26.915 4.512)"/><path class="c" d="M167.536,110.406a.621.621,0,0,0-.341-1.057l-4.691-.683a.612.612,0,0,1-.463-.341l-2.1-4.252a.62.62,0,0,0-1.114,0l-2.09,4.252a.646.646,0,0,1-.463.341l-4.691.683a.621.621,0,0,0-.341,1.057l3.39,3.309a.626.626,0,0,1,.179.545l-.8,4.667a.619.619,0,0,0,.9.65l4.2-2.2a.606.606,0,0,1,.577,0l4.2,2.2a.623.623,0,0,0,.9-.65l-.8-4.667a.612.612,0,0,1,.179-.545Z" transform="translate(-120.587 -95.292)"/></g></svg>