<svg xmlns="http://www.w3.org/2000/svg" xmlns:xlink="http://www.w3.org/1999/xlink" width="100%" height="100%" viewBox="0 0 25.656 36.403"><defs><linearGradient id="a" x1="0.899" y1="0.579" x2="0.108" y2="0.562" gradientUnits="objectBoundingBox"><stop offset="0" stop-color="#a003ce"/><stop offset="1" stop-color="#d957ff"/></linearGradient></defs><path d="M183.321,170.85l-4.366-19.741h0l-.825-.6H176.1l-.825.6h0L170.9,170.85a1.13,1.13,0,0,0,.378,1.111l4.986,4.17a1.315,1.315,0,0,0,1.687,0l4.986-4.17A1.13,1.13,0,0,0,183.321,170.85Z" transform="translate(-164.285 -140.034)" fill="url(#a)"/><path d="M196.364,78.493h0l-3.279.294-1.434,2.085,2.871,3.5h3.685l2.871-3.5-1.434-2.085Z" transform="translate(-183.536 -73.293)" fill="url(#a)"/><path d="M81.087,9.935l3.886,5.859a1.322,1.322,0,0,0,1.7.45L93.694,12.7,84.429,7.66a1.323,1.323,0,0,0-.937-.125l-1.608.382A1.323,1.323,0,0,0,81.087,9.935Z" transform="translate(-80.866 -7.5)" fill="#bec0c4"/><path d="M264.721,15.795l3.886-5.859a1.322,1.322,0,0,0-.8-2.017L266.2,7.536a1.322,1.322,0,0,0-.937.125L256,12.7l7.023,3.544A1.322,1.322,0,0,0,264.721,15.795Z" transform="translate(-243.172 -7.5)" fill="#bec0c4"/></svg>