<svg xmlns="http://www.w3.org/2000/svg" width="100%" height="100%" viewBox="0 0 24.378 27.134"><defs><style>.a{fill:#105c6e;}.b{fill:#26879c;}.c{fill:#de513c;}.d{fill:#fc6249;}.e{fill:#96d1d9;}.f{fill:#f4f2e6;}</style></defs><g transform="translate(-26.001)"><path class="a" d="M41.778,63.033l-1.584-1.588a1.945,1.945,0,0,0-2.753,0L36.292,62.6a1.948,1.948,0,0,0,0,2.748l1.588,1.591a.8.8,0,0,0,1.124,0c.311-.31,2.463-2.469,2.773-2.779A.8.8,0,0,0,41.778,63.033Z" transform="translate(-9.209 -57.648)"/><path class="b" d="M241.795,3a.8.8,0,0,0-.795.795V6.339a.795.795,0,1,0,1.59,0V3.795A.8.8,0,0,0,241.795,3Z" transform="translate(-203.605 -2.841)"/><path class="c" d="M208.717,0h-3.922a.795.795,0,1,0,0,1.59h3.922a.795.795,0,1,0,0-1.59Z" transform="translate(-168.566)"/><path class="d" d="M206.756,0h-1.961a.795.795,0,1,0,0,1.59h1.961Z" transform="translate(-168.566)"/><path class="c" d="M46.81,54.686a12.23,12.23,0,1,0,3.569,8.635A12.1,12.1,0,0,0,46.81,54.686Z" transform="translate(0 -48.399)"/><path class="d" d="M38.19,51.108a12.213,12.213,0,0,0,0,24.425Z" transform="translate(0 -48.399)"/><path class="e" d="M92.468,108.538a9.169,9.169,0,1,0,9.152,9.169A9.171,9.171,0,0,0,92.468,108.538Z" transform="translate(-54.278 -102.786)"/><path class="f" d="M92.468,108.538a9.169,9.169,0,0,0,0,18.338Z" transform="translate(-54.278 -102.786)"/><g transform="translate(29.038 5.752)"><path class="a" d="M241.795,110.525a.8.8,0,0,0,.795-.795v-1.156c-.262-.023-.527-.035-.795-.035s-.533.012-.795.035v1.156A.8.8,0,0,0,241.795,110.525Z" transform="translate(-232.643 -108.539)"/><path class="a" d="M241.795,417.1a.8.8,0,0,0-.795.795v1.156c.262.023.527.035.795.035s.533-.012.795-.035V417.9A.8.8,0,0,0,241.795,417.1Z" transform="translate(-232.643 -400.748)"/><path class="a" d="M393.48,266.554h-1.138a.795.795,0,0,0,0,1.59h1.138c.023-.262.035-.527.035-.795S393.5,266.816,393.48,266.554Z" transform="translate(-375.212 -258.18)"/><path class="a" d="M85.284,267.349a.8.8,0,0,0-.795-.795H83.351c-.023.262-.035.527-.035.795s.012.533.035.795h1.138A.8.8,0,0,0,85.284,267.349Z" transform="translate(-83.316 -258.18)"/><path class="a" d="M244.549,201.24h-1.122v-3.215a.795.795,0,1,0-1.59,0v4.01a.8.8,0,0,0,.795.795h1.916a.795.795,0,1,0,0-1.59Z" transform="translate(-233.437 -192.53)"/></g></g></svg>