<svg xmlns="http://www.w3.org/2000/svg" xmlns:xlink="http://www.w3.org/1999/xlink" width="100%" height="100%" viewBox="0 0 34.589 32.831"><defs><style>.a{fill:url(#a);}.b{fill:url(#b);}.c{fill:url(#c);}.d{fill:#fff;}</style><linearGradient id="a" y1="0.433" x2="1" y2="0.446" gradientUnits="objectBoundingBox"><stop offset="0" stop-color="#63a6fd"/><stop offset="1" stop-color="#0059d1"/></linearGradient><linearGradient id="b" y1="0.5" x2="1" y2="0.5" gradientUnits="objectBoundingBox"><stop offset="0" stop-color="#f64346"/><stop offset="1" stop-color="#bd0002"/></linearGradient><linearGradient id="c" y1="0.5" x2="1" y2="0.5" gradientUnits="objectBoundingBox"><stop offset="0" stop-color="#364177"/><stop offset="1" stop-color="#070d2a"/></linearGradient></defs><g transform="translate(-0.369 -0.37)"><path class="a" d="M32.3,7.555H8.9A1.241,1.241,0,0,0,7.543,8.632v29.73A1.241,1.241,0,0,0,8.9,39.439H32.3a1.241,1.241,0,0,0,1.357-1.077V8.632A1.241,1.241,0,0,0,32.3,7.555Zm0,0" transform="translate(-7.174 -7.185)"/><g transform="translate(13.979 12.222)"><path class="b" d="M244.8,252.589q-.14.018-.282.033a10.478,10.478,0,1,1,.282-.033Zm0,0" transform="translate(-232.954 -231.698)"/><path class="c" d="M283.7,273.886a7.765,7.765,0,1,0-7.736,8.559A7.772,7.772,0,0,0,283.7,273.886Zm0,0" transform="translate(-265.483 -264.19)"/><path class="d" d="M308.439,290.473a.627.627,0,0,0-.628.627l-.677,4.458-3.526.679a.627.627,0,1,0,0,1.255h4.831a.627.627,0,0,0,.627-.627V291.1A.627.627,0,0,0,308.439,290.473Zm0,0" transform="translate(-297.57 -285.931)"/></g><path class="d" d="M131.812,64.482a.526.526,0,0,0-.744,0l-6.311,4.639-2.277-.817a.526.526,0,1,0-.774.713l2.648,2.875a.525.525,0,0,0,.376.17h.011a.527.527,0,0,0,.371-.153l6.7-6.681A.526.526,0,0,0,131.812,64.482Z" transform="translate(-117.348 -60.108)"/><path class="d" d="M131.812,64.482a.526.526,0,0,0-.744,0l-6.311,4.639-2.277-.817a.526.526,0,1,0-.774.713l2.648,2.875a.525.525,0,0,0,.376.17h.011a.527.527,0,0,0,.371-.153l6.7-6.681A.526.526,0,0,0,131.812,64.482Z" transform="translate(-117.348 -51.83)"/></g></svg>