<svg xmlns="http://www.w3.org/2000/svg" width="17.5" height="17.5" viewBox="0 0 17.5 17.5"><defs><style>.a{fill:#ff5f5f;}</style></defs><g transform="translate(4.155 2.199)"><path class="a" d="M134.412,64.521a.659.659,0,0,0-.933,0l-7.912,7.891-2.855-3.1a.66.66,0,1,0-.97.893l3.32,3.605a.659.659,0,0,0,.471.213h.014a.66.66,0,0,0,.466-.192l8.4-8.376A.659.659,0,0,0,134.412,64.521Z" transform="translate(-121.568 -64.327)"/></g><path class="a" d="M16.84,8.09a.659.659,0,0,0-.66.66A7.431,7.431,0,1,1,8.75,1.319.66.66,0,1,0,8.75,0,8.75,8.75,0,1,0,17.5,8.75.66.66,0,0,0,16.84,8.09Z"/></svg>