<svg xmlns="http://www.w3.org/2000/svg" width="1em" height="1em" viewBox="0 0 31.779 31.779"><g transform="translate(0 -2)"><circle cx="1.552" cy="1.552" r="1.552" transform="translate(14.338 23.941)" fill="#111a44"/><path d="M15.889,0A15.889,15.889,0,1,0,31.779,15.889,15.881,15.881,0,0,0,15.889,0Zm0,29.3A13.407,13.407,0,1,1,29.3,15.889,13.4,13.4,0,0,1,15.889,29.3Z" transform="translate(0 2)" fill="#111a44"/><path d="M180.965,128.5A4.971,4.971,0,0,0,176,133.465a1.241,1.241,0,0,0,2.483,0,2.483,2.483,0,1,1,2.483,2.483,1.241,1.241,0,0,0-1.241,1.241v3.1a1.241,1.241,0,1,0,2.483,0v-2.019a4.966,4.966,0,0,0-1.241-9.774Z" transform="translate(-165.076 -118.524)" fill="#111a44"/></g></svg>